<svg version="1" xmlns="http://www.w3.org/2000/svg" width="1365.333" height="1365.333" viewBox="0 0 1024.000000 1024.000000"><path d="M490.8 51.6c-.2.2-3.7.6-7.8.9-4.1.3-8.8.8-10.5 1-1.6.2-5.2.6-8 1-3.9.5-26 4.7-31 5.9-8.9 2.2-27 8-38 12.3-10.8 4.2-37.1 17.1-44.6 21.8-15.9 10-21 13.4-30 20.2-18.6 13.8-34.2 28.4-50.3 47.3-6.3 7.3-20.6 26.5-24.3 32.5-18.1 29.7-27 48.1-35.5 74-1.9 5.9-7.2 25.8-8.3 31.2-1.2 5.7-2.7 14.5-4 23.3-5.9 38.4-2.7 97.6 7.1 134 9.1 33.8 18.3 49.2 63.8 107 29.7 37.8 46.7 62.7 61.7 90.5C339 669 350 691.7 350 693.4c0 .7.4 1.6.9 2.1.4.6 2.8 5.7 5.1 11.5 5.9 14.5 8.3 19 12.2 22.6 5.2 4.9 8.9 7.1 15.8 9.5l6.5 2.2 118.5.1c65.2.1 121.2-.2 124.4-.7 15.2-2.3 25.6-11.2 32.2-27.7.9-2.5 2.6-6.3 3.5-8.6 1-2.2 2.7-6.3 3.8-9 5.8-14.6 21.2-44.2 32.4-62.4 12.2-19.8 32.7-48.6 47.9-67.3 1.3-1.6 3.8-4.7 5.6-7 1.9-2.3 4.1-5.1 5-6.2 10.7-12.9 31.1-42.1 39.4-56.6 8.8-15.2 17.4-42.2 20.4-63.9.3-2.5.8-5.4 1-6.5.2-1.1.6-4.5 1-7.5.3-3 .7-6.6.9-8 2.3-14.4 2.3-60.6 0-78.5-.2-1.7-.7-5.5-1-8.5-.7-5.3-.9-6.7-2-12-.2-1.4-.7-4.1-1-6-2.6-16.3-12.3-47.4-20.5-65.6-14.3-31.6-35.6-64.2-56.4-86.3-21.3-22.5-36.9-35.7-61.6-51.8-31.9-20.8-74.3-38-109.5-44.3-2.7-.5-6.1-1.1-7.5-1.4-1.4-.2-6.5-.9-11.5-1.5-4.9-.6-11-1.4-13.5-1.7-5-.6-50.7-1.3-51.2-.8zm34.7 117.6c9.2 4.8 14.5 13.2 14.9 24.1.5 11-3.8 19.8-12.4 25.5-5.2 3.5-7.3 4-19 4.7-13.4.8-21.2 1.8-29.5 3.7-2.7.6-5.2 1.1-5.5 1.1-1.3-.1-19.3 6.8-24.9 9.6-14.5 7-28.8 17.8-41.9 31.6-23.9 25.2-37 55.7-38.7 90-.9 17.8-2.1 21.9-9.1 28.7-5.3 5.4-12.1 7.7-21.4 7.4-12.3-.5-22-7.2-25.5-17.7-1.8-5.4-2.2-18.8-.9-29.5.4-3.3.8-7 .9-8.4 1.1-14.6 9.5-42 18.6-60.5 10.5-21.5 22.1-37.8 38.3-54.1 11.6-11.6 17.6-16.5 30.6-25.1 13.8-9.2 37.3-21.3 41.3-21.3.7 0 1.7-.4 2.3-.8.9-.9 10.6-4 19.2-6.2 6.9-1.8 20.1-4 27.2-4.6 3.6-.3 6.6-.7 6.8-.9.2-.1 5.6-.2 12-.1 10.5.2 12.2.5 16.7 2.8zM379.9 801.7c-4 2.1-6.1 4-8.4 7.7l-3 4.9-.2 30.1c-.1 16.6.3 32.4.8 35.1 1.2 6.5 5 14.2 9.6 19.5 3.6 4 12.9 10.9 16.6 12.3 1.5.6 1.7 2.1 1.7 11.5 0 17.1 3.2 26.2 12.5 35.7 5.5 5.7 11 8.9 19.5 11.4 4.9 1.5 14.1 1.7 84 1.6 83.4-.1 79.8 0 90.5-4.7 8.1-3.5 18-14.8 20.9-23.6 2.2-6.7 2.4-8.5 2.5-20.2l.1-10.5 5.3-3c6.3-3.7 15.9-13.1 18.6-18.3 4.4-8.5 4.9-13.6 4.9-45.1 0-28.9-.1-30.2-2.3-34.8-2.3-5.1-6.6-9-11.9-11-2.3-.8-35.9-1.2-129.7-1.2l-126.5-.1-5.5 2.7z"/></svg>